<?xml version="1.0" encoding="utf-8" standalone="no"?>
<!DOCTYPE svg PUBLIC "-//W3C//DTD SVG 1.1//EN"
  "http://www.w3.org/Graphics/SVG/1.1/DTD/svg11.dtd">
<svg xmlns:xlink="http://www.w3.org/1999/xlink" width="432pt" height="360pt" viewBox="0 0 432 360" xmlns="http://www.w3.org/2000/svg" version="1.1">
 <metadata>
  <rdf:RDF xmlns:dc="http://purl.org/dc/elements/1.1/" xmlns:cc="http://creativecommons.org/ns#" xmlns:rdf="http://www.w3.org/1999/02/22-rdf-syntax-ns#">
   <cc:Work>
    <dc:type rdf:resource="http://purl.org/dc/dcmitype/StillImage"/>
    <dc:date>2026-03-31T17:38:32.114269</dc:date>
    <dc:format>image/svg+xml</dc:format>
    <dc:creator>
     <cc:Agent>
      <dc:title>Matplotlib v3.9.2, https://matplotlib.org/</dc:title>
     </cc:Agent>
    </dc:creator>
   </cc:Work>
  </rdf:RDF>
 </metadata>
 <defs>
  <style type="text/css">*{stroke-linejoin: round; stroke-linecap: butt}</style>
 </defs>
 <g id="figure_1">
  <g id="patch_1">
   <path d="M 0 360 
L 432 360 
L 432 0 
L 0 0 
z
" style="fill: #ffffff"/>
  </g>
  <g id="axes_1">
   <g id="patch_2">
    <path d="M 71.03 306.52 
L 416.483182 306.52 
L 416.483182 15.12 
L 71.03 15.12 
z
" style="fill: #ffffff"/>
   </g>
   <g id="PathCollection_1">
    <defs>
     <path id="me7319ce4a1" d="M 0 3.535534 
C 0.937635 3.535534 1.836992 3.163008 2.5 2.5 
C 3.163008 1.836992 3.535534 0.937635 3.535534 0 
C 3.535534 -0.937635 3.163008 -1.836992 2.5 -2.5 
C 1.836992 -3.163008 0.937635 -3.535534 0 -3.535534 
C -0.937635 -3.535534 -1.836992 -3.163008 -2.5 -2.5 
C -3.163008 -1.836992 -3.535534 -0.937635 -3.535534 0 
C -3.535534 0.937635 -3.163008 1.836992 -2.5 2.5 
C -1.836992 3.163008 -0.937635 3.535534 0 3.535534 
z
" style="stroke: #d55e00"/>
    </defs>
    <g clip-path="url(#pcb2176f164)">
     <use xlink:href="#me7319ce4a1" x="260.58061" y="141.897922" style="fill: #d55e00; stroke: #d55e00"/>
     <use xlink:href="#me7319ce4a1" x="260.58061" y="122.975844" style="fill: #d55e00; stroke: #d55e00"/>
     <use xlink:href="#me7319ce4a1" x="260.58061" y="104.053766" style="fill: #d55e00; stroke: #d55e00"/>
     <use xlink:href="#me7319ce4a1" x="260.58061" y="85.131688" style="fill: #d55e00; stroke: #d55e00"/>
     <use xlink:href="#me7319ce4a1" x="260.58061" y="66.20961" style="fill: #d55e00; stroke: #d55e00"/>
     <use xlink:href="#me7319ce4a1" x="260.58061" y="47.287532" style="fill: #d55e00; stroke: #d55e00"/>
     <use xlink:href="#me7319ce4a1" x="260.58061" y="28.365455" style="fill: #d55e00; stroke: #d55e00"/>
     <use xlink:href="#me7319ce4a1" x="288.62064" y="141.897922" style="fill: #d55e00; stroke: #d55e00"/>
     <use xlink:href="#me7319ce4a1" x="288.62064" y="122.975844" style="fill: #d55e00; stroke: #d55e00"/>
     <use xlink:href="#me7319ce4a1" x="288.62064" y="104.053766" style="fill: #d55e00; stroke: #d55e00"/>
     <use xlink:href="#me7319ce4a1" x="288.62064" y="85.131688" style="fill: #d55e00; stroke: #d55e00"/>
     <use xlink:href="#me7319ce4a1" x="288.62064" y="66.20961" style="fill: #d55e00; stroke: #d55e00"/>
     <use xlink:href="#me7319ce4a1" x="288.62064" y="47.287532" style="fill: #d55e00; stroke: #d55e00"/>
     <use xlink:href="#me7319ce4a1" x="288.62064" y="28.365455" style="fill: #d55e00; stroke: #d55e00"/>
     <use xlink:href="#me7319ce4a1" x="316.660671" y="141.897922" style="fill: #d55e00; stroke: #d55e00"/>
     <use xlink:href="#me7319ce4a1" x="316.660671" y="122.975844" style="fill: #d55e00; stroke: #d55e00"/>
     <use xlink:href="#me7319ce4a1" x="316.660671" y="104.053766" style="fill: #d55e00; stroke: #d55e00"/>
     <use xlink:href="#me7319ce4a1" x="316.660671" y="85.131688" style="fill: #d55e00; stroke: #d55e00"/>
     <use xlink:href="#me7319ce4a1" x="316.660671" y="66.20961" style="fill: #d55e00; stroke: #d55e00"/>
     <use xlink:href="#me7319ce4a1" x="316.660671" y="47.287532" style="fill: #d55e00; stroke: #d55e00"/>
     <use xlink:href="#me7319ce4a1" x="316.660671" y="28.365455" style="fill: #d55e00; stroke: #d55e00"/>
     <use xlink:href="#me7319ce4a1" x="344.700702" y="141.897922" style="fill: #d55e00; stroke: #d55e00"/>
     <use xlink:href="#me7319ce4a1" x="344.700702" y="122.975844" style="fill: #d55e00; stroke: #d55e00"/>
     <use xlink:href="#me7319ce4a1" x="344.700702" y="104.053766" style="fill: #d55e00; stroke: #d55e00"/>
     <use xlink:href="#me7319ce4a1" x="344.700702" y="85.131688" style="fill: #d55e00; stroke: #d55e00"/>
     <use xlink:href="#me7319ce4a1" x="344.700702" y="66.20961" style="fill: #d55e00; stroke: #d55e00"/>
     <use xlink:href="#me7319ce4a1" x="344.700702" y="47.287532" style="fill: #d55e00; stroke: #d55e00"/>
     <use xlink:href="#me7319ce4a1" x="344.700702" y="28.365455" style="fill: #d55e00; stroke: #d55e00"/>
     <use xlink:href="#me7319ce4a1" x="372.740733" y="141.897922" style="fill: #d55e00; stroke: #d55e00"/>
     <use xlink:href="#me7319ce4a1" x="372.740733" y="122.975844" style="fill: #d55e00; stroke: #d55e00"/>
     <use xlink:href="#me7319ce4a1" x="372.740733" y="104.053766" style="fill: #d55e00; stroke: #d55e00"/>
     <use xlink:href="#me7319ce4a1" x="372.740733" y="85.131688" style="fill: #d55e00; stroke: #d55e00"/>
     <use xlink:href="#me7319ce4a1" x="372.740733" y="66.20961" style="fill: #d55e00; stroke: #d55e00"/>
     <use xlink:href="#me7319ce4a1" x="372.740733" y="47.287532" style="fill: #d55e00; stroke: #d55e00"/>
     <use xlink:href="#me7319ce4a1" x="372.740733" y="28.365455" style="fill: #d55e00; stroke: #d55e00"/>
     <use xlink:href="#me7319ce4a1" x="400.780764" y="141.897922" style="fill: #d55e00; stroke: #d55e00"/>
     <use xlink:href="#me7319ce4a1" x="400.780764" y="122.975844" style="fill: #d55e00; stroke: #d55e00"/>
     <use xlink:href="#me7319ce4a1" x="400.780764" y="104.053766" style="fill: #d55e00; stroke: #d55e00"/>
     <use xlink:href="#me7319ce4a1" x="400.780764" y="85.131688" style="fill: #d55e00; stroke: #d55e00"/>
     <use xlink:href="#me7319ce4a1" x="400.780764" y="66.20961" style="fill: #d55e00; stroke: #d55e00"/>
     <use xlink:href="#me7319ce4a1" x="400.780764" y="47.287532" style="fill: #d55e00; stroke: #d55e00"/>
     <use xlink:href="#me7319ce4a1" x="400.780764" y="28.365455" style="fill: #d55e00; stroke: #d55e00"/>
    </g>
   </g>
   <g id="PathCollection_2">
    <defs>
     <path id="mcd24d5a479" d="M 0 3.535534 
C 0.937635 3.535534 1.836992 3.163008 2.5 2.5 
C 3.163008 1.836992 3.535534 0.937635 3.535534 0 
C 3.535534 -0.937635 3.163008 -1.836992 2.5 -2.5 
C 1.836992 -3.163008 0.937635 -3.535534 0 -3.535534 
C -0.937635 -3.535534 -1.836992 -3.163008 -2.5 -2.5 
C -3.163008 -1.836992 -3.535534 -0.937635 -3.535534 0 
C -3.535534 0.937635 -3.163008 1.836992 -2.5 2.5 
C -1.836992 3.163008 -0.937635 3.535534 0 3.535534 
z
" style="stroke: #009e73"/>
    </defs>
    <g clip-path="url(#pcb2176f164)">
     <use xlink:href="#mcd24d5a479" x="86.732417" y="141.897922" style="fill: #009e73; stroke: #009e73"/>
     <use xlink:href="#mcd24d5a479" x="86.732417" y="122.975844" style="fill: #009e73; stroke: #009e73"/>
     <use xlink:href="#mcd24d5a479" x="86.732417" y="104.053766" style="fill: #009e73; stroke: #009e73"/>
     <use xlink:href="#mcd24d5a479" x="86.732417" y="85.131688" style="fill: #009e73; stroke: #009e73"/>
     <use xlink:href="#mcd24d5a479" x="86.732417" y="66.20961" style="fill: #009e73; stroke: #009e73"/>
     <use xlink:href="#mcd24d5a479" x="86.732417" y="47.287532" style="fill: #009e73; stroke: #009e73"/>
     <use xlink:href="#mcd24d5a479" x="86.732417" y="28.365455" style="fill: #009e73; stroke: #009e73"/>
     <use xlink:href="#mcd24d5a479" x="97.94843" y="141.897922" style="fill: #009e73; stroke: #009e73"/>
     <use xlink:href="#mcd24d5a479" x="97.94843" y="122.975844" style="fill: #009e73; stroke: #009e73"/>
     <use xlink:href="#mcd24d5a479" x="97.94843" y="104.053766" style="fill: #009e73; stroke: #009e73"/>
     <use xlink:href="#mcd24d5a479" x="97.94843" y="85.131688" style="fill: #009e73; stroke: #009e73"/>
     <use xlink:href="#mcd24d5a479" x="97.94843" y="66.20961" style="fill: #009e73; stroke: #009e73"/>
     <use xlink:href="#mcd24d5a479" x="97.94843" y="47.287532" style="fill: #009e73; stroke: #009e73"/>
     <use xlink:href="#mcd24d5a479" x="97.94843" y="28.365455" style="fill: #009e73; stroke: #009e73"/>
     <use xlink:href="#mcd24d5a479" x="109.164442" y="141.897922" style="fill: #009e73; stroke: #009e73"/>
     <use xlink:href="#mcd24d5a479" x="109.164442" y="122.975844" style="fill: #009e73; stroke: #009e73"/>
     <use xlink:href="#mcd24d5a479" x="109.164442" y="104.053766" style="fill: #009e73; stroke: #009e73"/>
     <use xlink:href="#mcd24d5a479" x="109.164442" y="85.131688" style="fill: #009e73; stroke: #009e73"/>
     <use xlink:href="#mcd24d5a479" x="109.164442" y="66.20961" style="fill: #009e73; stroke: #009e73"/>
     <use xlink:href="#mcd24d5a479" x="109.164442" y="47.287532" style="fill: #009e73; stroke: #009e73"/>
     <use xlink:href="#mcd24d5a479" x="109.164442" y="28.365455" style="fill: #009e73; stroke: #009e73"/>
     <use xlink:href="#mcd24d5a479" x="120.380455" y="141.897922" style="fill: #009e73; stroke: #009e73"/>
     <use xlink:href="#mcd24d5a479" x="120.380455" y="122.975844" style="fill: #009e73; stroke: #009e73"/>
     <use xlink:href="#mcd24d5a479" x="120.380455" y="104.053766" style="fill: #009e73; stroke: #009e73"/>
     <use xlink:href="#mcd24d5a479" x="120.380455" y="85.131688" style="fill: #009e73; stroke: #009e73"/>
     <use xlink:href="#mcd24d5a479" x="120.380455" y="66.20961" style="fill: #009e73; stroke: #009e73"/>
     <use xlink:href="#mcd24d5a479" x="120.380455" y="47.287532" style="fill: #009e73; stroke: #009e73"/>
     <use xlink:href="#mcd24d5a479" x="120.380455" y="28.365455" style="fill: #009e73; stroke: #009e73"/>
     <use xlink:href="#mcd24d5a479" x="148.420486" y="141.897922" style="fill: #009e73; stroke: #009e73"/>
     <use xlink:href="#mcd24d5a479" x="148.420486" y="122.975844" style="fill: #009e73; stroke: #009e73"/>
     <use xlink:href="#mcd24d5a479" x="148.420486" y="104.053766" style="fill: #009e73; stroke: #009e73"/>
     <use xlink:href="#mcd24d5a479" x="148.420486" y="85.131688" style="fill: #009e73; stroke: #009e73"/>
     <use xlink:href="#mcd24d5a479" x="148.420486" y="66.20961" style="fill: #009e73; stroke: #009e73"/>
     <use xlink:href="#mcd24d5a479" x="148.420486" y="47.287532" style="fill: #009e73; stroke: #009e73"/>
     <use xlink:href="#mcd24d5a479" x="148.420486" y="28.365455" style="fill: #009e73; stroke: #009e73"/>
     <use xlink:href="#mcd24d5a479" x="176.460517" y="141.897922" style="fill: #009e73; stroke: #009e73"/>
     <use xlink:href="#mcd24d5a479" x="176.460517" y="122.975844" style="fill: #009e73; stroke: #009e73"/>
     <use xlink:href="#mcd24d5a479" x="176.460517" y="104.053766" style="fill: #009e73; stroke: #009e73"/>
     <use xlink:href="#mcd24d5a479" x="176.460517" y="85.131688" style="fill: #009e73; stroke: #009e73"/>
     <use xlink:href="#mcd24d5a479" x="176.460517" y="66.20961" style="fill: #009e73; stroke: #009e73"/>
     <use xlink:href="#mcd24d5a479" x="176.460517" y="47.287532" style="fill: #009e73; stroke: #009e73"/>
     <use xlink:href="#mcd24d5a479" x="176.460517" y="28.365455" style="fill: #009e73; stroke: #009e73"/>
     <use xlink:href="#mcd24d5a479" x="204.500548" y="141.897922" style="fill: #009e73; stroke: #009e73"/>
     <use xlink:href="#mcd24d5a479" x="204.500548" y="122.975844" style="fill: #009e73; stroke: #009e73"/>
     <use xlink:href="#mcd24d5a479" x="204.500548" y="104.053766" style="fill: #009e73; stroke: #009e73"/>
     <use xlink:href="#mcd24d5a479" x="204.500548" y="85.131688" style="fill: #009e73; stroke: #009e73"/>
     <use xlink:href="#mcd24d5a479" x="204.500548" y="66.20961" style="fill: #009e73; stroke: #009e73"/>
     <use xlink:href="#mcd24d5a479" x="204.500548" y="47.287532" style="fill: #009e73; stroke: #009e73"/>
     <use xlink:href="#mcd24d5a479" x="204.500548" y="28.365455" style="fill: #009e73; stroke: #009e73"/>
     <use xlink:href="#mcd24d5a479" x="232.540579" y="141.897922" style="fill: #009e73; stroke: #009e73"/>
     <use xlink:href="#mcd24d5a479" x="232.540579" y="122.975844" style="fill: #009e73; stroke: #009e73"/>
     <use xlink:href="#mcd24d5a479" x="232.540579" y="104.053766" style="fill: #009e73; stroke: #009e73"/>
     <use xlink:href="#mcd24d5a479" x="232.540579" y="85.131688" style="fill: #009e73; stroke: #009e73"/>
     <use xlink:href="#mcd24d5a479" x="232.540579" y="66.20961" style="fill: #009e73; stroke: #009e73"/>
     <use xlink:href="#mcd24d5a479" x="232.540579" y="47.287532" style="fill: #009e73; stroke: #009e73"/>
     <use xlink:href="#mcd24d5a479" x="232.540579" y="28.365455" style="fill: #009e73; stroke: #009e73"/>
    </g>
   </g>
   <g id="PathCollection_3">
    <defs>
     <path id="m6f5dfe8163" d="M 0 3.535534 
C 0.937635 3.535534 1.836992 3.163008 2.5 2.5 
C 3.163008 1.836992 3.535534 0.937635 3.535534 0 
C 3.535534 -0.937635 3.163008 -1.836992 2.5 -2.5 
C 1.836992 -3.163008 0.937635 -3.535534 0 -3.535534 
C -0.937635 -3.535534 -1.836992 -3.163008 -2.5 -2.5 
C -3.163008 -1.836992 -3.535534 -0.937635 -3.535534 0 
C -3.535534 0.937635 -3.163008 1.836992 -2.5 2.5 
C -1.836992 3.163008 -0.937635 3.535534 0 3.535534 
z
" style="stroke: #0072b2"/>
    </defs>
    <g clip-path="url(#pcb2176f164)">
     <use xlink:href="#m6f5dfe8163" x="86.732417" y="198.664156" style="fill: #0072b2; stroke: #0072b2"/>
     <use xlink:href="#m6f5dfe8163" x="86.732417" y="179.742078" style="fill: #0072b2; stroke: #0072b2"/>
     <use xlink:href="#m6f5dfe8163" x="86.732417" y="160.82" style="fill: #0072b2; stroke: #0072b2"/>
     <use xlink:href="#m6f5dfe8163" x="97.94843" y="217.586234" style="fill: #0072b2; stroke: #0072b2"/>
     <use xlink:href="#m6f5dfe8163" x="97.94843" y="198.664156" style="fill: #0072b2; stroke: #0072b2"/>
     <use xlink:href="#m6f5dfe8163" x="97.94843" y="179.742078" style="fill: #0072b2; stroke: #0072b2"/>
     <use xlink:href="#m6f5dfe8163" x="97.94843" y="160.82" style="fill: #0072b2; stroke: #0072b2"/>
     <use xlink:href="#m6f5dfe8163" x="109.164442" y="217.586234" style="fill: #0072b2; stroke: #0072b2"/>
     <use xlink:href="#m6f5dfe8163" x="109.164442" y="198.664156" style="fill: #0072b2; stroke: #0072b2"/>
     <use xlink:href="#m6f5dfe8163" x="109.164442" y="179.742078" style="fill: #0072b2; stroke: #0072b2"/>
     <use xlink:href="#m6f5dfe8163" x="109.164442" y="160.82" style="fill: #0072b2; stroke: #0072b2"/>
     <use xlink:href="#m6f5dfe8163" x="120.380455" y="236.508312" style="fill: #0072b2; stroke: #0072b2"/>
     <use xlink:href="#m6f5dfe8163" x="120.380455" y="217.586234" style="fill: #0072b2; stroke: #0072b2"/>
     <use xlink:href="#m6f5dfe8163" x="120.380455" y="198.664156" style="fill: #0072b2; stroke: #0072b2"/>
     <use xlink:href="#m6f5dfe8163" x="120.380455" y="179.742078" style="fill: #0072b2; stroke: #0072b2"/>
     <use xlink:href="#m6f5dfe8163" x="120.380455" y="160.82" style="fill: #0072b2; stroke: #0072b2"/>
     <use xlink:href="#m6f5dfe8163" x="148.420486" y="255.43039" style="fill: #0072b2; stroke: #0072b2"/>
     <use xlink:href="#m6f5dfe8163" x="148.420486" y="236.508312" style="fill: #0072b2; stroke: #0072b2"/>
     <use xlink:href="#m6f5dfe8163" x="148.420486" y="217.586234" style="fill: #0072b2; stroke: #0072b2"/>
     <use xlink:href="#m6f5dfe8163" x="148.420486" y="198.664156" style="fill: #0072b2; stroke: #0072b2"/>
     <use xlink:href="#m6f5dfe8163" x="148.420486" y="179.742078" style="fill: #0072b2; stroke: #0072b2"/>
     <use xlink:href="#m6f5dfe8163" x="148.420486" y="160.82" style="fill: #0072b2; stroke: #0072b2"/>
     <use xlink:href="#m6f5dfe8163" x="176.460517" y="274.352468" style="fill: #0072b2; stroke: #0072b2"/>
     <use xlink:href="#m6f5dfe8163" x="176.460517" y="255.43039" style="fill: #0072b2; stroke: #0072b2"/>
     <use xlink:href="#m6f5dfe8163" x="176.460517" y="236.508312" style="fill: #0072b2; stroke: #0072b2"/>
     <use xlink:href="#m6f5dfe8163" x="176.460517" y="217.586234" style="fill: #0072b2; stroke: #0072b2"/>
     <use xlink:href="#m6f5dfe8163" x="176.460517" y="198.664156" style="fill: #0072b2; stroke: #0072b2"/>
     <use xlink:href="#m6f5dfe8163" x="176.460517" y="179.742078" style="fill: #0072b2; stroke: #0072b2"/>
     <use xlink:href="#m6f5dfe8163" x="176.460517" y="160.82" style="fill: #0072b2; stroke: #0072b2"/>
     <use xlink:href="#m6f5dfe8163" x="204.500548" y="274.352468" style="fill: #0072b2; stroke: #0072b2"/>
     <use xlink:href="#m6f5dfe8163" x="204.500548" y="255.43039" style="fill: #0072b2; stroke: #0072b2"/>
     <use xlink:href="#m6f5dfe8163" x="204.500548" y="236.508312" style="fill: #0072b2; stroke: #0072b2"/>
     <use xlink:href="#m6f5dfe8163" x="204.500548" y="217.586234" style="fill: #0072b2; stroke: #0072b2"/>
     <use xlink:href="#m6f5dfe8163" x="204.500548" y="198.664156" style="fill: #0072b2; stroke: #0072b2"/>
     <use xlink:href="#m6f5dfe8163" x="204.500548" y="179.742078" style="fill: #0072b2; stroke: #0072b2"/>
     <use xlink:href="#m6f5dfe8163" x="204.500548" y="160.82" style="fill: #0072b2; stroke: #0072b2"/>
     <use xlink:href="#m6f5dfe8163" x="232.540579" y="274.352468" style="fill: #0072b2; stroke: #0072b2"/>
     <use xlink:href="#m6f5dfe8163" x="232.540579" y="255.43039" style="fill: #0072b2; stroke: #0072b2"/>
     <use xlink:href="#m6f5dfe8163" x="232.540579" y="236.508312" style="fill: #0072b2; stroke: #0072b2"/>
     <use xlink:href="#m6f5dfe8163" x="232.540579" y="217.586234" style="fill: #0072b2; stroke: #0072b2"/>
     <use xlink:href="#m6f5dfe8163" x="232.540579" y="198.664156" style="fill: #0072b2; stroke: #0072b2"/>
     <use xlink:href="#m6f5dfe8163" x="232.540579" y="179.742078" style="fill: #0072b2; stroke: #0072b2"/>
     <use xlink:href="#m6f5dfe8163" x="232.540579" y="160.82" style="fill: #0072b2; stroke: #0072b2"/>
    </g>
   </g>
   <g id="PathCollection_4">
    <defs>
     <path id="m7f91869827" d="M 0 3.535534 
C 0.937635 3.535534 1.836992 3.163008 2.5 2.5 
C 3.163008 1.836992 3.535534 0.937635 3.535534 0 
C 3.535534 -0.937635 3.163008 -1.836992 2.5 -2.5 
C 1.836992 -3.163008 0.937635 -3.535534 0 -3.535534 
C -0.937635 -3.535534 -1.836992 -3.163008 -2.5 -2.5 
C -3.163008 -1.836992 -3.535534 -0.937635 -3.535534 0 
C -3.535534 0.937635 -3.163008 1.836992 -2.5 2.5 
C -1.836992 3.163008 -0.937635 3.535534 0 3.535534 
z
" style="stroke: #f0e442"/>
    </defs>
    <g clip-path="url(#pcb2176f164)">
     <use xlink:href="#m7f91869827" x="260.58061" y="274.352468" style="fill: #f0e442; stroke: #f0e442"/>
     <use xlink:href="#m7f91869827" x="260.58061" y="255.43039" style="fill: #f0e442; stroke: #f0e442"/>
     <use xlink:href="#m7f91869827" x="260.58061" y="236.508312" style="fill: #f0e442; stroke: #f0e442"/>
     <use xlink:href="#m7f91869827" x="260.58061" y="217.586234" style="fill: #f0e442; stroke: #f0e442"/>
     <use xlink:href="#m7f91869827" x="260.58061" y="198.664156" style="fill: #f0e442; stroke: #f0e442"/>
     <use xlink:href="#m7f91869827" x="260.58061" y="179.742078" style="fill: #f0e442; stroke: #f0e442"/>
     <use xlink:href="#m7f91869827" x="260.58061" y="160.82" style="fill: #f0e442; stroke: #f0e442"/>
     <use xlink:href="#m7f91869827" x="288.62064" y="293.274545" style="fill: #f0e442; stroke: #f0e442"/>
     <use xlink:href="#m7f91869827" x="288.62064" y="274.352468" style="fill: #f0e442; stroke: #f0e442"/>
     <use xlink:href="#m7f91869827" x="288.62064" y="255.43039" style="fill: #f0e442; stroke: #f0e442"/>
     <use xlink:href="#m7f91869827" x="288.62064" y="236.508312" style="fill: #f0e442; stroke: #f0e442"/>
     <use xlink:href="#m7f91869827" x="288.62064" y="217.586234" style="fill: #f0e442; stroke: #f0e442"/>
     <use xlink:href="#m7f91869827" x="288.62064" y="198.664156" style="fill: #f0e442; stroke: #f0e442"/>
     <use xlink:href="#m7f91869827" x="288.62064" y="179.742078" style="fill: #f0e442; stroke: #f0e442"/>
     <use xlink:href="#m7f91869827" x="288.62064" y="160.82" style="fill: #f0e442; stroke: #f0e442"/>
     <use xlink:href="#m7f91869827" x="316.660671" y="293.274545" style="fill: #f0e442; stroke: #f0e442"/>
     <use xlink:href="#m7f91869827" x="316.660671" y="274.352468" style="fill: #f0e442; stroke: #f0e442"/>
     <use xlink:href="#m7f91869827" x="316.660671" y="255.43039" style="fill: #f0e442; stroke: #f0e442"/>
     <use xlink:href="#m7f91869827" x="316.660671" y="236.508312" style="fill: #f0e442; stroke: #f0e442"/>
     <use xlink:href="#m7f91869827" x="316.660671" y="217.586234" style="fill: #f0e442; stroke: #f0e442"/>
     <use xlink:href="#m7f91869827" x="316.660671" y="198.664156" style="fill: #f0e442; stroke: #f0e442"/>
     <use xlink:href="#m7f91869827" x="316.660671" y="179.742078" style="fill: #f0e442; stroke: #f0e442"/>
     <use xlink:href="#m7f91869827" x="316.660671" y="160.82" style="fill: #f0e442; stroke: #f0e442"/>
     <use xlink:href="#m7f91869827" x="344.700702" y="293.274545" style="fill: #f0e442; stroke: #f0e442"/>
     <use xlink:href="#m7f91869827" x="344.700702" y="274.352468" style="fill: #f0e442; stroke: #f0e442"/>
     <use xlink:href="#m7f91869827" x="344.700702" y="255.43039" style="fill: #f0e442; stroke: #f0e442"/>
     <use xlink:href="#m7f91869827" x="344.700702" y="236.508312" style="fill: #f0e442; stroke: #f0e442"/>
     <use xlink:href="#m7f91869827" x="344.700702" y="217.586234" style="fill: #f0e442; stroke: #f0e442"/>
     <use xlink:href="#m7f91869827" x="344.700702" y="198.664156" style="fill: #f0e442; stroke: #f0e442"/>
     <use xlink:href="#m7f91869827" x="344.700702" y="179.742078" style="fill: #f0e442; stroke: #f0e442"/>
     <use xlink:href="#m7f91869827" x="344.700702" y="160.82" style="fill: #f0e442; stroke: #f0e442"/>
     <use xlink:href="#m7f91869827" x="372.740733" y="293.274545" style="fill: #f0e442; stroke: #f0e442"/>
     <use xlink:href="#m7f91869827" x="372.740733" y="274.352468" style="fill: #f0e442; stroke: #f0e442"/>
     <use xlink:href="#m7f91869827" x="372.740733" y="255.43039" style="fill: #f0e442; stroke: #f0e442"/>
     <use xlink:href="#m7f91869827" x="372.740733" y="236.508312" style="fill: #f0e442; stroke: #f0e442"/>
     <use xlink:href="#m7f91869827" x="372.740733" y="217.586234" style="fill: #f0e442; stroke: #f0e442"/>
     <use xlink:href="#m7f91869827" x="372.740733" y="198.664156" style="fill: #f0e442; stroke: #f0e442"/>
     <use xlink:href="#m7f91869827" x="372.740733" y="179.742078" style="fill: #f0e442; stroke: #f0e442"/>
     <use xlink:href="#m7f91869827" x="372.740733" y="160.82" style="fill: #f0e442; stroke: #f0e442"/>
     <use xlink:href="#m7f91869827" x="400.780764" y="293.274545" style="fill: #f0e442; stroke: #f0e442"/>
     <use xlink:href="#m7f91869827" x="400.780764" y="274.352468" style="fill: #f0e442; stroke: #f0e442"/>
     <use xlink:href="#m7f91869827" x="400.780764" y="255.43039" style="fill: #f0e442; stroke: #f0e442"/>
     <use xlink:href="#m7f91869827" x="400.780764" y="236.508312" style="fill: #f0e442; stroke: #f0e442"/>
     <use xlink:href="#m7f91869827" x="400.780764" y="217.586234" style="fill: #f0e442; stroke: #f0e442"/>
     <use xlink:href="#m7f91869827" x="400.780764" y="198.664156" style="fill: #f0e442; stroke: #f0e442"/>
     <use xlink:href="#m7f91869827" x="400.780764" y="179.742078" style="fill: #f0e442; stroke: #f0e442"/>
     <use xlink:href="#m7f91869827" x="400.780764" y="160.82" style="fill: #f0e442; stroke: #f0e442"/>
    </g>
   </g>
   <g id="matplotlib.axis_1">
    <g id="xtick_1">
     <g id="line2d_1">
      <defs>
       <path id="m0b946b41e2" d="M 0 0 
L 0 3.5 
" style="stroke: #000000; stroke-width: 0.8"/>
      </defs>
      <g>
       <use xlink:href="#m0b946b41e2" x="120.380455" y="306.52" style="stroke: #000000; stroke-width: 0.8"/>
      </g>
     </g>
     <g id="text_1">
      <!-- 5.0 -->
      <g transform="translate(109.248267 324.157812) scale(0.14 -0.14)">
       <defs>
        <path id="DejaVuSans-35" d="M 691 4666 
L 3169 4666 
L 3169 4134 
L 1269 4134 
L 1269 2991 
Q 1406 3038 1543 3061 
Q 1681 3084 1819 3084 
Q 2600 3084 3056 2656 
Q 3513 2228 3513 1497 
Q 3513 744 3044 326 
Q 2575 -91 1722 -91 
Q 1428 -91 1123 -41 
Q 819 9 494 109 
L 494 744 
Q 775 591 1075 516 
Q 1375 441 1709 441 
Q 2250 441 2565 725 
Q 2881 1009 2881 1497 
Q 2881 1984 2565 2268 
Q 2250 2553 1709 2553 
Q 1456 2553 1204 2497 
Q 953 2441 691 2322 
L 691 4666 
z
" transform="scale(0.015625)"/>
        <path id="DejaVuSans-2e" d="M 684 794 
L 1344 794 
L 1344 0 
L 684 0 
L 684 794 
z
" transform="scale(0.015625)"/>
        <path id="DejaVuSans-30" d="M 2034 4250 
Q 1547 4250 1301 3770 
Q 1056 3291 1056 2328 
Q 1056 1369 1301 889 
Q 1547 409 2034 409 
Q 2525 409 2770 889 
Q 3016 1369 3016 2328 
Q 3016 3291 2770 3770 
Q 2525 4250 2034 4250 
z
M 2034 4750 
Q 2819 4750 3233 4129 
Q 3647 3509 3647 2328 
Q 3647 1150 3233 529 
Q 2819 -91 2034 -91 
Q 1250 -91 836 529 
Q 422 1150 422 2328 
Q 422 3509 836 4129 
Q 1250 4750 2034 4750 
z
" transform="scale(0.015625)"/>
       </defs>
       <use xlink:href="#DejaVuSans-35"/>
       <use xlink:href="#DejaVuSans-2e" x="63.623047"/>
       <use xlink:href="#DejaVuSans-30" x="95.410156"/>
      </g>
     </g>
    </g>
    <g id="xtick_2">
     <g id="line2d_2">
      <g>
       <use xlink:href="#m0b946b41e2" x="176.460517" y="306.52" style="stroke: #000000; stroke-width: 0.8"/>
      </g>
     </g>
     <g id="text_2">
      <!-- 10.0 -->
      <g transform="translate(160.874579 324.157812) scale(0.14 -0.14)">
       <defs>
        <path id="DejaVuSans-31" d="M 794 531 
L 1825 531 
L 1825 4091 
L 703 3866 
L 703 4441 
L 1819 4666 
L 2450 4666 
L 2450 531 
L 3481 531 
L 3481 0 
L 794 0 
L 794 531 
z
" transform="scale(0.015625)"/>
       </defs>
       <use xlink:href="#DejaVuSans-31"/>
       <use xlink:href="#DejaVuSans-30" x="63.623047"/>
       <use xlink:href="#DejaVuSans-2e" x="127.246094"/>
       <use xlink:href="#DejaVuSans-30" x="159.033203"/>
      </g>
     </g>
    </g>
    <g id="xtick_3">
     <g id="line2d_3">
      <g>
       <use xlink:href="#m0b946b41e2" x="232.540579" y="306.52" style="stroke: #000000; stroke-width: 0.8"/>
      </g>
     </g>
     <g id="text_3">
      <!-- 15.0 -->
      <g transform="translate(216.954641 324.157812) scale(0.14 -0.14)">
       <use xlink:href="#DejaVuSans-31"/>
       <use xlink:href="#DejaVuSans-35" x="63.623047"/>
       <use xlink:href="#DejaVuSans-2e" x="127.246094"/>
       <use xlink:href="#DejaVuSans-30" x="159.033203"/>
      </g>
     </g>
    </g>
    <g id="xtick_4">
     <g id="line2d_4">
      <g>
       <use xlink:href="#m0b946b41e2" x="288.62064" y="306.52" style="stroke: #000000; stroke-width: 0.8"/>
      </g>
     </g>
     <g id="text_4">
      <!-- 20.0 -->
      <g transform="translate(273.034703 324.157812) scale(0.14 -0.14)">
       <defs>
        <path id="DejaVuSans-32" d="M 1228 531 
L 3431 531 
L 3431 0 
L 469 0 
L 469 531 
Q 828 903 1448 1529 
Q 2069 2156 2228 2338 
Q 2531 2678 2651 2914 
Q 2772 3150 2772 3378 
Q 2772 3750 2511 3984 
Q 2250 4219 1831 4219 
Q 1534 4219 1204 4116 
Q 875 4013 500 3803 
L 500 4441 
Q 881 4594 1212 4672 
Q 1544 4750 1819 4750 
Q 2544 4750 2975 4387 
Q 3406 4025 3406 3419 
Q 3406 3131 3298 2873 
Q 3191 2616 2906 2266 
Q 2828 2175 2409 1742 
Q 1991 1309 1228 531 
z
" transform="scale(0.015625)"/>
       </defs>
       <use xlink:href="#DejaVuSans-32"/>
       <use xlink:href="#DejaVuSans-30" x="63.623047"/>
       <use xlink:href="#DejaVuSans-2e" x="127.246094"/>
       <use xlink:href="#DejaVuSans-30" x="159.033203"/>
      </g>
     </g>
    </g>
    <g id="xtick_5">
     <g id="line2d_5">
      <g>
       <use xlink:href="#m0b946b41e2" x="344.700702" y="306.52" style="stroke: #000000; stroke-width: 0.8"/>
      </g>
     </g>
     <g id="text_5">
      <!-- 25.0 -->
      <g transform="translate(329.114765 324.157812) scale(0.14 -0.14)">
       <use xlink:href="#DejaVuSans-32"/>
       <use xlink:href="#DejaVuSans-35" x="63.623047"/>
       <use xlink:href="#DejaVuSans-2e" x="127.246094"/>
       <use xlink:href="#DejaVuSans-30" x="159.033203"/>
      </g>
     </g>
    </g>
    <g id="xtick_6">
     <g id="line2d_6">
      <g>
       <use xlink:href="#m0b946b41e2" x="400.780764" y="306.52" style="stroke: #000000; stroke-width: 0.8"/>
      </g>
     </g>
     <g id="text_6">
      <!-- 30.0 -->
      <g transform="translate(385.194827 324.157812) scale(0.14 -0.14)">
       <defs>
        <path id="DejaVuSans-33" d="M 2597 2516 
Q 3050 2419 3304 2112 
Q 3559 1806 3559 1356 
Q 3559 666 3084 287 
Q 2609 -91 1734 -91 
Q 1441 -91 1130 -33 
Q 819 25 488 141 
L 488 750 
Q 750 597 1062 519 
Q 1375 441 1716 441 
Q 2309 441 2620 675 
Q 2931 909 2931 1356 
Q 2931 1769 2642 2001 
Q 2353 2234 1838 2234 
L 1294 2234 
L 1294 2753 
L 1863 2753 
Q 2328 2753 2575 2939 
Q 2822 3125 2822 3475 
Q 2822 3834 2567 4026 
Q 2313 4219 1838 4219 
Q 1578 4219 1281 4162 
Q 984 4106 628 3988 
L 628 4550 
Q 988 4650 1302 4700 
Q 1616 4750 1894 4750 
Q 2613 4750 3031 4423 
Q 3450 4097 3450 3541 
Q 3450 3153 3228 2886 
Q 3006 2619 2597 2516 
z
" transform="scale(0.015625)"/>
       </defs>
       <use xlink:href="#DejaVuSans-33"/>
       <use xlink:href="#DejaVuSans-30" x="63.623047"/>
       <use xlink:href="#DejaVuSans-2e" x="127.246094"/>
       <use xlink:href="#DejaVuSans-30" x="159.033203"/>
      </g>
     </g>
    </g>
    <g id="text_7">
     <!-- pressure [mTorr] -->
     <g transform="translate(186.021903 341.707188) scale(0.14 -0.14)">
      <defs>
       <path id="DejaVuSans-70" d="M 1159 525 
L 1159 -1331 
L 581 -1331 
L 581 3500 
L 1159 3500 
L 1159 2969 
Q 1341 3281 1617 3432 
Q 1894 3584 2278 3584 
Q 2916 3584 3314 3078 
Q 3713 2572 3713 1747 
Q 3713 922 3314 415 
Q 2916 -91 2278 -91 
Q 1894 -91 1617 61 
Q 1341 213 1159 525 
z
M 3116 1747 
Q 3116 2381 2855 2742 
Q 2594 3103 2138 3103 
Q 1681 3103 1420 2742 
Q 1159 2381 1159 1747 
Q 1159 1113 1420 752 
Q 1681 391 2138 391 
Q 2594 391 2855 752 
Q 3116 1113 3116 1747 
z
" transform="scale(0.015625)"/>
       <path id="DejaVuSans-72" d="M 2631 2963 
Q 2534 3019 2420 3045 
Q 2306 3072 2169 3072 
Q 1681 3072 1420 2755 
Q 1159 2438 1159 1844 
L 1159 0 
L 581 0 
L 581 3500 
L 1159 3500 
L 1159 2956 
Q 1341 3275 1631 3429 
Q 1922 3584 2338 3584 
Q 2397 3584 2469 3576 
Q 2541 3569 2628 3553 
L 2631 2963 
z
" transform="scale(0.015625)"/>
       <path id="DejaVuSans-65" d="M 3597 1894 
L 3597 1613 
L 953 1613 
Q 991 1019 1311 708 
Q 1631 397 2203 397 
Q 2534 397 2845 478 
Q 3156 559 3463 722 
L 3463 178 
Q 3153 47 2828 -22 
Q 2503 -91 2169 -91 
Q 1331 -91 842 396 
Q 353 884 353 1716 
Q 353 2575 817 3079 
Q 1281 3584 2069 3584 
Q 2775 3584 3186 3129 
Q 3597 2675 3597 1894 
z
M 3022 2063 
Q 3016 2534 2758 2815 
Q 2500 3097 2075 3097 
Q 1594 3097 1305 2825 
Q 1016 2553 972 2059 
L 3022 2063 
z
" transform="scale(0.015625)"/>
       <path id="DejaVuSans-73" d="M 2834 3397 
L 2834 2853 
Q 2591 2978 2328 3040 
Q 2066 3103 1784 3103 
Q 1356 3103 1142 2972 
Q 928 2841 928 2578 
Q 928 2378 1081 2264 
Q 1234 2150 1697 2047 
L 1894 2003 
Q 2506 1872 2764 1633 
Q 3022 1394 3022 966 
Q 3022 478 2636 193 
Q 2250 -91 1575 -91 
Q 1294 -91 989 -36 
Q 684 19 347 128 
L 347 722 
Q 666 556 975 473 
Q 1284 391 1588 391 
Q 1994 391 2212 530 
Q 2431 669 2431 922 
Q 2431 1156 2273 1281 
Q 2116 1406 1581 1522 
L 1381 1569 
Q 847 1681 609 1914 
Q 372 2147 372 2553 
Q 372 3047 722 3315 
Q 1072 3584 1716 3584 
Q 2034 3584 2315 3537 
Q 2597 3491 2834 3397 
z
" transform="scale(0.015625)"/>
       <path id="DejaVuSans-75" d="M 544 1381 
L 544 3500 
L 1119 3500 
L 1119 1403 
Q 1119 906 1312 657 
Q 1506 409 1894 409 
Q 2359 409 2629 706 
Q 2900 1003 2900 1516 
L 2900 3500 
L 3475 3500 
L 3475 0 
L 2900 0 
L 2900 538 
Q 2691 219 2414 64 
Q 2138 -91 1772 -91 
Q 1169 -91 856 284 
Q 544 659 544 1381 
z
M 1991 3584 
L 1991 3584 
z
" transform="scale(0.015625)"/>
       <path id="DejaVuSans-20" transform="scale(0.015625)"/>
       <path id="DejaVuSans-5b" d="M 550 4863 
L 1875 4863 
L 1875 4416 
L 1125 4416 
L 1125 -397 
L 1875 -397 
L 1875 -844 
L 550 -844 
L 550 4863 
z
" transform="scale(0.015625)"/>
       <path id="DejaVuSans-6d" d="M 3328 2828 
Q 3544 3216 3844 3400 
Q 4144 3584 4550 3584 
Q 5097 3584 5394 3201 
Q 5691 2819 5691 2113 
L 5691 0 
L 5113 0 
L 5113 2094 
Q 5113 2597 4934 2840 
Q 4756 3084 4391 3084 
Q 3944 3084 3684 2787 
Q 3425 2491 3425 1978 
L 3425 0 
L 2847 0 
L 2847 2094 
Q 2847 2600 2669 2842 
Q 2491 3084 2119 3084 
Q 1678 3084 1418 2786 
Q 1159 2488 1159 1978 
L 1159 0 
L 581 0 
L 581 3500 
L 1159 3500 
L 1159 2956 
Q 1356 3278 1631 3431 
Q 1906 3584 2284 3584 
Q 2666 3584 2933 3390 
Q 3200 3197 3328 2828 
z
" transform="scale(0.015625)"/>
       <path id="DejaVuSans-54" d="M -19 4666 
L 3928 4666 
L 3928 4134 
L 2272 4134 
L 2272 0 
L 1638 0 
L 1638 4134 
L -19 4134 
L -19 4666 
z
" transform="scale(0.015625)"/>
       <path id="DejaVuSans-6f" d="M 1959 3097 
Q 1497 3097 1228 2736 
Q 959 2375 959 1747 
Q 959 1119 1226 758 
Q 1494 397 1959 397 
Q 2419 397 2687 759 
Q 2956 1122 2956 1747 
Q 2956 2369 2687 2733 
Q 2419 3097 1959 3097 
z
M 1959 3584 
Q 2709 3584 3137 3096 
Q 3566 2609 3566 1747 
Q 3566 888 3137 398 
Q 2709 -91 1959 -91 
Q 1206 -91 779 398 
Q 353 888 353 1747 
Q 353 2609 779 3096 
Q 1206 3584 1959 3584 
z
" transform="scale(0.015625)"/>
       <path id="DejaVuSans-5d" d="M 1947 4863 
L 1947 -844 
L 622 -844 
L 622 -397 
L 1369 -397 
L 1369 4416 
L 622 4416 
L 622 4863 
L 1947 4863 
z
" transform="scale(0.015625)"/>
      </defs>
      <use xlink:href="#DejaVuSans-70"/>
      <use xlink:href="#DejaVuSans-72" x="63.476562"/>
      <use xlink:href="#DejaVuSans-65" x="102.339844"/>
      <use xlink:href="#DejaVuSans-73" x="163.863281"/>
      <use xlink:href="#DejaVuSans-73" x="215.962891"/>
      <use xlink:href="#DejaVuSans-75" x="268.0625"/>
      <use xlink:href="#DejaVuSans-72" x="331.441406"/>
      <use xlink:href="#DejaVuSans-65" x="370.304688"/>
      <use xlink:href="#DejaVuSans-20" x="431.828125"/>
      <use xlink:href="#DejaVuSans-5b" x="463.615234"/>
      <use xlink:href="#DejaVuSans-6d" x="502.628906"/>
      <use xlink:href="#DejaVuSans-54" x="600.041016"/>
      <use xlink:href="#DejaVuSans-6f" x="644.125"/>
      <use xlink:href="#DejaVuSans-72" x="705.306641"/>
      <use xlink:href="#DejaVuSans-72" x="744.669922"/>
      <use xlink:href="#DejaVuSans-5d" x="785.783203"/>
     </g>
    </g>
   </g>
   <g id="matplotlib.axis_2">
    <g id="ytick_1">
     <g id="line2d_7">
      <defs>
       <path id="m6df63c31cc" d="M 0 0 
L -3.5 0 
" style="stroke: #000000; stroke-width: 0.8"/>
      </defs>
      <g>
       <use xlink:href="#m6df63c31cc" x="71.03" y="275.301362" style="stroke: #000000; stroke-width: 0.8"/>
      </g>
     </g>
     <g id="text_8">
      <!-- 10.0 -->
      <g transform="translate(32.858125 280.620269) scale(0.14 -0.14)">
       <use xlink:href="#DejaVuSans-31"/>
       <use xlink:href="#DejaVuSans-30" x="63.623047"/>
       <use xlink:href="#DejaVuSans-2e" x="127.246094"/>
       <use xlink:href="#DejaVuSans-30" x="159.033203"/>
      </g>
     </g>
    </g>
    <g id="ytick_2">
     <g id="line2d_8">
      <g>
       <use xlink:href="#m6df63c31cc" x="71.03" y="219.484023" style="stroke: #000000; stroke-width: 0.8"/>
      </g>
     </g>
     <g id="text_9">
      <!-- 20.0 -->
      <g transform="translate(32.858125 224.80293) scale(0.14 -0.14)">
       <use xlink:href="#DejaVuSans-32"/>
       <use xlink:href="#DejaVuSans-30" x="63.623047"/>
       <use xlink:href="#DejaVuSans-2e" x="127.246094"/>
       <use xlink:href="#DejaVuSans-30" x="159.033203"/>
      </g>
     </g>
    </g>
    <g id="ytick_3">
     <g id="line2d_9">
      <g>
       <use xlink:href="#m6df63c31cc" x="71.03" y="163.666684" style="stroke: #000000; stroke-width: 0.8"/>
      </g>
     </g>
     <g id="text_10">
      <!-- 30.0 -->
      <g transform="translate(32.858125 168.985591) scale(0.14 -0.14)">
       <use xlink:href="#DejaVuSans-33"/>
       <use xlink:href="#DejaVuSans-30" x="63.623047"/>
       <use xlink:href="#DejaVuSans-2e" x="127.246094"/>
       <use xlink:href="#DejaVuSans-30" x="159.033203"/>
      </g>
     </g>
    </g>
    <g id="ytick_4">
     <g id="line2d_10">
      <g>
       <use xlink:href="#m6df63c31cc" x="71.03" y="107.849345" style="stroke: #000000; stroke-width: 0.8"/>
      </g>
     </g>
     <g id="text_11">
      <!-- 40.0 -->
      <g transform="translate(32.858125 113.168252) scale(0.14 -0.14)">
       <defs>
        <path id="DejaVuSans-34" d="M 2419 4116 
L 825 1625 
L 2419 1625 
L 2419 4116 
z
M 2253 4666 
L 3047 4666 
L 3047 1625 
L 3713 1625 
L 3713 1100 
L 3047 1100 
L 3047 0 
L 2419 0 
L 2419 1100 
L 313 1100 
L 313 1709 
L 2253 4666 
z
" transform="scale(0.015625)"/>
       </defs>
       <use xlink:href="#DejaVuSans-34"/>
       <use xlink:href="#DejaVuSans-30" x="63.623047"/>
       <use xlink:href="#DejaVuSans-2e" x="127.246094"/>
       <use xlink:href="#DejaVuSans-30" x="159.033203"/>
      </g>
     </g>
    </g>
    <g id="ytick_5">
     <g id="line2d_11">
      <g>
       <use xlink:href="#m6df63c31cc" x="71.03" y="52.032006" style="stroke: #000000; stroke-width: 0.8"/>
      </g>
     </g>
     <g id="text_12">
      <!-- 50.0 -->
      <g transform="translate(32.858125 57.350913) scale(0.14 -0.14)">
       <use xlink:href="#DejaVuSans-35"/>
       <use xlink:href="#DejaVuSans-30" x="63.623047"/>
       <use xlink:href="#DejaVuSans-2e" x="127.246094"/>
       <use xlink:href="#DejaVuSans-30" x="159.033203"/>
      </g>
     </g>
    </g>
    <g id="text_13">
     <!-- frequency [MHz] -->
     <g transform="translate(25.946562 218.591875) rotate(-90) scale(0.14 -0.14)">
      <defs>
       <path id="DejaVuSans-66" d="M 2375 4863 
L 2375 4384 
L 1825 4384 
Q 1516 4384 1395 4259 
Q 1275 4134 1275 3809 
L 1275 3500 
L 2222 3500 
L 2222 3053 
L 1275 3053 
L 1275 0 
L 697 0 
L 697 3053 
L 147 3053 
L 147 3500 
L 697 3500 
L 697 3744 
Q 697 4328 969 4595 
Q 1241 4863 1831 4863 
L 2375 4863 
z
" transform="scale(0.015625)"/>
       <path id="DejaVuSans-71" d="M 947 1747 
Q 947 1113 1208 752 
Q 1469 391 1925 391 
Q 2381 391 2643 752 
Q 2906 1113 2906 1747 
Q 2906 2381 2643 2742 
Q 2381 3103 1925 3103 
Q 1469 3103 1208 2742 
Q 947 2381 947 1747 
z
M 2906 525 
Q 2725 213 2448 61 
Q 2172 -91 1784 -91 
Q 1150 -91 751 415 
Q 353 922 353 1747 
Q 353 2572 751 3078 
Q 1150 3584 1784 3584 
Q 2172 3584 2448 3432 
Q 2725 3281 2906 2969 
L 2906 3500 
L 3481 3500 
L 3481 -1331 
L 2906 -1331 
L 2906 525 
z
" transform="scale(0.015625)"/>
       <path id="DejaVuSans-6e" d="M 3513 2113 
L 3513 0 
L 2938 0 
L 2938 2094 
Q 2938 2591 2744 2837 
Q 2550 3084 2163 3084 
Q 1697 3084 1428 2787 
Q 1159 2491 1159 1978 
L 1159 0 
L 581 0 
L 581 3500 
L 1159 3500 
L 1159 2956 
Q 1366 3272 1645 3428 
Q 1925 3584 2291 3584 
Q 2894 3584 3203 3211 
Q 3513 2838 3513 2113 
z
" transform="scale(0.015625)"/>
       <path id="DejaVuSans-63" d="M 3122 3366 
L 3122 2828 
Q 2878 2963 2633 3030 
Q 2388 3097 2138 3097 
Q 1578 3097 1268 2742 
Q 959 2388 959 1747 
Q 959 1106 1268 751 
Q 1578 397 2138 397 
Q 2388 397 2633 464 
Q 2878 531 3122 666 
L 3122 134 
Q 2881 22 2623 -34 
Q 2366 -91 2075 -91 
Q 1284 -91 818 406 
Q 353 903 353 1747 
Q 353 2603 823 3093 
Q 1294 3584 2113 3584 
Q 2378 3584 2631 3529 
Q 2884 3475 3122 3366 
z
" transform="scale(0.015625)"/>
       <path id="DejaVuSans-79" d="M 2059 -325 
Q 1816 -950 1584 -1140 
Q 1353 -1331 966 -1331 
L 506 -1331 
L 506 -850 
L 844 -850 
Q 1081 -850 1212 -737 
Q 1344 -625 1503 -206 
L 1606 56 
L 191 3500 
L 800 3500 
L 1894 763 
L 2988 3500 
L 3597 3500 
L 2059 -325 
z
" transform="scale(0.015625)"/>
       <path id="DejaVuSans-4d" d="M 628 4666 
L 1569 4666 
L 2759 1491 
L 3956 4666 
L 4897 4666 
L 4897 0 
L 4281 0 
L 4281 4097 
L 3078 897 
L 2444 897 
L 1241 4097 
L 1241 0 
L 628 0 
L 628 4666 
z
" transform="scale(0.015625)"/>
       <path id="DejaVuSans-48" d="M 628 4666 
L 1259 4666 
L 1259 2753 
L 3553 2753 
L 3553 4666 
L 4184 4666 
L 4184 0 
L 3553 0 
L 3553 2222 
L 1259 2222 
L 1259 0 
L 628 0 
L 628 4666 
z
" transform="scale(0.015625)"/>
       <path id="DejaVuSans-7a" d="M 353 3500 
L 3084 3500 
L 3084 2975 
L 922 459 
L 3084 459 
L 3084 0 
L 275 0 
L 275 525 
L 2438 3041 
L 353 3041 
L 353 3500 
z
" transform="scale(0.015625)"/>
      </defs>
      <use xlink:href="#DejaVuSans-66"/>
      <use xlink:href="#DejaVuSans-72" x="35.205078"/>
      <use xlink:href="#DejaVuSans-65" x="74.068359"/>
      <use xlink:href="#DejaVuSans-71" x="135.591797"/>
      <use xlink:href="#DejaVuSans-75" x="199.068359"/>
      <use xlink:href="#DejaVuSans-65" x="262.447266"/>
      <use xlink:href="#DejaVuSans-6e" x="323.970703"/>
      <use xlink:href="#DejaVuSans-63" x="387.349609"/>
      <use xlink:href="#DejaVuSans-79" x="442.330078"/>
      <use xlink:href="#DejaVuSans-20" x="501.509766"/>
      <use xlink:href="#DejaVuSans-5b" x="533.296875"/>
      <use xlink:href="#DejaVuSans-4d" x="572.310547"/>
      <use xlink:href="#DejaVuSans-48" x="658.589844"/>
      <use xlink:href="#DejaVuSans-7a" x="733.785156"/>
      <use xlink:href="#DejaVuSans-5d" x="786.275391"/>
     </g>
    </g>
   </g>
   <g id="patch_3">
    <path d="M 71.03 306.52 
L 71.03 15.12 
" style="fill: none; stroke: #000000; stroke-width: 0.8; stroke-linejoin: miter; stroke-linecap: square"/>
   </g>
   <g id="patch_4">
    <path d="M 416.483182 306.52 
L 416.483182 15.12 
" style="fill: none; stroke: #000000; stroke-width: 0.8; stroke-linejoin: miter; stroke-linecap: square"/>
   </g>
   <g id="patch_5">
    <path d="M 71.03 306.52 
L 416.483182 306.52 
" style="fill: none; stroke: #000000; stroke-width: 0.8; stroke-linejoin: miter; stroke-linecap: square"/>
   </g>
   <g id="patch_6">
    <path d="M 71.03 15.12 
L 416.483182 15.12 
" style="fill: none; stroke: #000000; stroke-width: 0.8; stroke-linejoin: miter; stroke-linecap: square"/>
   </g>
   <g id="legend_1">
    <g id="patch_7">
     <path d="M 77.33 302.02 
L 118.940938 302.02 
Q 120.740938 302.02 120.740938 300.22 
L 120.740938 248.27875 
Q 120.740938 246.47875 118.940938 246.47875 
L 77.33 246.47875 
Q 75.53 246.47875 75.53 248.27875 
L 75.53 300.22 
Q 75.53 302.02 77.33 302.02 
z
" style="fill: #ffffff; opacity: 0.8; stroke: #cccccc; stroke-linejoin: miter"/>
    </g>
    <g id="PathCollection_5">
     <g>
      <use xlink:href="#me7319ce4a1" x="88.13" y="254.554844" style="fill: #d55e00; stroke: #d55e00"/>
     </g>
    </g>
    <g id="text_14">
     <!-- Q1 -->
     <g transform="translate(104.33 256.917344) scale(0.09 -0.09)">
      <defs>
       <path id="DejaVuSans-51" d="M 2522 4238 
Q 1834 4238 1429 3725 
Q 1025 3213 1025 2328 
Q 1025 1447 1429 934 
Q 1834 422 2522 422 
Q 3209 422 3611 934 
Q 4013 1447 4013 2328 
Q 4013 3213 3611 3725 
Q 3209 4238 2522 4238 
z
M 3406 84 
L 4238 -825 
L 3475 -825 
L 2784 -78 
Q 2681 -84 2626 -87 
Q 2572 -91 2522 -91 
Q 1538 -91 948 567 
Q 359 1225 359 2328 
Q 359 3434 948 4092 
Q 1538 4750 2522 4750 
Q 3503 4750 4090 4092 
Q 4678 3434 4678 2328 
Q 4678 1516 4351 937 
Q 4025 359 3406 84 
z
" transform="scale(0.015625)"/>
      </defs>
      <use xlink:href="#DejaVuSans-51"/>
      <use xlink:href="#DejaVuSans-31" x="78.710938"/>
     </g>
    </g>
    <g id="PathCollection_6">
     <g>
      <use xlink:href="#mcd24d5a479" x="88.13" y="267.765156" style="fill: #009e73; stroke: #009e73"/>
     </g>
    </g>
    <g id="text_15">
     <!-- Q2 -->
     <g transform="translate(104.33 270.127656) scale(0.09 -0.09)">
      <use xlink:href="#DejaVuSans-51"/>
      <use xlink:href="#DejaVuSans-32" x="78.710938"/>
     </g>
    </g>
    <g id="PathCollection_7">
     <g>
      <use xlink:href="#m6f5dfe8163" x="88.13" y="280.975469" style="fill: #0072b2; stroke: #0072b2"/>
     </g>
    </g>
    <g id="text_16">
     <!-- Q3 -->
     <g transform="translate(104.33 283.337969) scale(0.09 -0.09)">
      <use xlink:href="#DejaVuSans-51"/>
      <use xlink:href="#DejaVuSans-33" x="78.710938"/>
     </g>
    </g>
    <g id="PathCollection_8">
     <g>
      <use xlink:href="#m7f91869827" x="88.13" y="294.185781" style="fill: #f0e442; stroke: #f0e442"/>
     </g>
    </g>
    <g id="text_17">
     <!-- Q4 -->
     <g transform="translate(104.33 296.548281) scale(0.09 -0.09)">
      <use xlink:href="#DejaVuSans-51"/>
      <use xlink:href="#DejaVuSans-34" x="78.710938"/>
     </g>
    </g>
   </g>
  </g>
 </g>
 <defs>
  <clipPath id="pcb2176f164">
   <rect x="71.03" y="15.12" width="345.453182" height="291.4"/>
  </clipPath>
 </defs>
</svg>
